<mxfile host="65bd71144e">
    <diagram id="oA1PU2qWwD8op_XIJ3pW" name="Page-1">
        <mxGraphModel dx="1097" dy="490" grid="1" gridSize="10" guides="1" tooltips="1" connect="1" arrows="1" fold="1" page="1" pageScale="1" pageWidth="827" pageHeight="1169" math="0" shadow="0">
            <root>
                <mxCell id="0"/>
                <mxCell id="1" parent="0"/>
                <mxCell id="2" value="&lt;font style=&quot;font-size: 20px;&quot;&gt;&lt;b&gt;一人で遊ぶオセロゲームw&lt;/b&gt;&lt;/font&gt;" style="rounded=0;whiteSpace=wrap;html=1;fillColor=none;verticalAlign=top;" vertex="1" parent="1">
                    <mxGeometry x="43" y="40" width="370" height="370" as="geometry"/>
                </mxCell>
                <mxCell id="3" value="" style="line;strokeWidth=1;fillColor=none;align=left;verticalAlign=middle;spacingTop=-1;spacingLeft=3;spacingRight=3;rotatable=0;labelPosition=right;points=[];portConstraint=eastwest;strokeColor=inherit;" vertex="1" parent="1">
                    <mxGeometry x="43" y="70" width="370" height="8" as="geometry"/>
                </mxCell>
                <mxCell id="4" value="対戦する" style="html=1;fontSize=20;fillColor=none;" vertex="1" parent="1">
                    <mxGeometry x="173" y="130" width="120" height="60" as="geometry"/>
                </mxCell>
                <mxCell id="5" value="過去の対戦結果" style="html=1;fontSize=20;fillColor=none;" vertex="1" parent="1">
                    <mxGeometry x="163" y="230" width="140" height="70" as="geometry"/>
                </mxCell>
                <mxCell id="6" value="&lt;font style=&quot;font-size: 20px;&quot;&gt;&lt;b&gt;一人で遊ぶオセロゲームw&lt;/b&gt;&lt;/font&gt;" style="rounded=0;whiteSpace=wrap;html=1;fillColor=none;verticalAlign=top;" vertex="1" parent="1">
                    <mxGeometry x="500" y="40" width="370" height="370" as="geometry"/>
                </mxCell>
                <mxCell id="7" value="" style="line;strokeWidth=1;fillColor=none;align=left;verticalAlign=middle;spacingTop=-1;spacingLeft=3;spacingRight=3;rotatable=0;labelPosition=right;points=[];portConstraint=eastwest;strokeColor=inherit;" vertex="1" parent="1">
                    <mxGeometry x="500" y="70" width="370" height="8" as="geometry"/>
                </mxCell>
                <mxCell id="8" value="白の番はスキップです" style="html=1;fontSize=20;fillColor=none;" vertex="1" parent="1">
                    <mxGeometry x="580" y="90" width="220" height="30" as="geometry"/>
                </mxCell>
                <mxCell id="9" value="盤面" style="html=1;fontSize=20;fillColor=none;" vertex="1" parent="1">
                    <mxGeometry x="560" y="140" width="260" height="220" as="geometry"/>
                </mxCell>
                <mxCell id="11" value="次は黒の番です" style="text;strokeColor=none;fillColor=none;align=left;verticalAlign=top;spacingLeft=4;spacingRight=4;overflow=hidden;rotatable=0;points=[[0,0.5],[1,0.5]];portConstraint=eastwest;fontSize=20;" vertex="1" parent="1">
                    <mxGeometry x="610" y="370" width="190" height="26" as="geometry"/>
                </mxCell>
            </root>
        </mxGraphModel>
    </diagram>
</mxfile>